<svg width="177" height="43" viewBox="0 0 177 43" fill="none" xmlns="http://www.w3.org/2000/svg">
<path d="M68.4226 14.4331C64.923 14.4331 62.6415 16.1324 61.9976 19.2175C61.9764 19.3214 62.0402 19.4233 62.1407 19.4488L64.7239 20.0877C64.7741 20.0995 64.8263 20.0917 64.8708 20.0642C64.9153 20.0368 64.9462 19.9937 64.9578 19.9427C65.416 18.0199 66.4872 17.1242 68.3279 17.1242C70.4663 17.1242 71.3789 18.0964 71.3789 20.3759V21.3931H66.8488C63.4033 21.3931 61.4272 23.0944 61.4272 26.0579C61.4272 28.8608 63.1171 30.4033 66.1875 30.4033C68.7707 30.4033 70.6925 29.0587 71.5046 26.6989V29.8878C71.5046 29.9956 71.5916 30.0838 71.698 30.0838H74.312C74.4184 30.0838 74.5054 29.9956 74.5054 29.8878V20.3425C74.5054 16.4225 72.4598 14.4331 68.4226 14.4331ZM71.3789 23.7V24.3331C71.3789 26.3931 69.6717 27.7769 67.133 27.7769C64.8979 27.7769 64.43 26.6675 64.43 25.7385C64.43 24.0528 65.969 23.7 67.2606 23.7H71.3789Z" fill="white"/>
<path d="M95.8793 14.4019C93.0932 14.4019 91.2042 15.913 90.4018 18.7766C90.017 15.913 88.3755 14.4019 85.6434 14.4019C83.0874 14.4019 81.1307 15.8895 80.2316 18.4944V14.9801C80.2316 14.8723 80.1446 14.7841 80.0382 14.7841H77.3623C77.256 14.7841 77.1689 14.8723 77.1689 14.9801V29.8879C77.1689 29.9957 77.256 30.0839 77.3623 30.0839H80.1021C80.2084 30.0839 80.2954 29.9957 80.2954 29.8879V21.3658C80.2954 18.9432 81.9775 17.3164 84.4795 17.3164C86.9485 17.3164 87.4667 19.1549 87.4667 20.6955V29.8899C87.4667 29.9977 87.5537 30.0859 87.6601 30.0859H90.3998C90.5062 30.0859 90.5932 29.9977 90.5932 29.8899V21.3658C90.5932 18.906 92.2347 17.3164 94.7772 17.3164C97.2463 17.3164 97.7645 19.1549 97.7645 20.6955V29.8899C97.7645 29.9977 97.8515 30.0859 97.9578 30.0859H100.698C100.804 30.0859 100.891 29.9977 100.891 29.8899V20.0251C100.891 16.452 99.0657 14.4019 95.8793 14.4019Z" fill="white"/>
<path d="M109.716 21.0757C106.647 20.5681 106.226 19.6723 106.226 18.7786C106.226 17.9064 106.7 16.8676 108.962 16.8676C110.857 16.8676 111.765 17.6222 112.206 19.5567C112.229 19.6606 112.332 19.7272 112.434 19.7037L114.954 19.1608C115.006 19.149 115.05 19.1177 115.077 19.0726C115.104 19.0275 115.114 18.9726 115.101 18.9217C114.308 15.7092 112.548 14.3999 109.024 14.3999C105.319 14.3999 103.194 16.0542 103.194 18.9373C103.194 21.4873 104.805 22.8711 108.583 23.5669C111.901 24.151 112.485 24.7939 112.485 25.9228C112.456 27.2792 111.46 27.9652 109.528 27.9652C107.189 27.9652 105.945 27.0165 105.369 24.7919C105.344 24.6919 105.244 24.6292 105.143 24.6488L102.655 25.1604C102.604 25.1702 102.56 25.2015 102.531 25.2447C102.502 25.2878 102.492 25.3407 102.502 25.3917C103.219 28.9471 105.309 30.4642 109.493 30.4642C113.376 30.4642 115.512 28.8178 115.512 25.8307C115.514 23.2023 113.834 21.8244 109.716 21.0757Z" fill="white"/>
<path d="M140.205 10.5386H132.837C132.731 10.5386 132.644 10.6268 132.644 10.7346V29.8878C132.644 29.9956 132.731 30.0838 132.837 30.0838H135.733C135.84 30.0838 135.927 29.9956 135.927 29.8878V23.2532H140.267C144.465 23.2532 147.073 20.8169 147.073 16.8969C147.075 12.6769 144.765 10.5386 140.205 10.5386ZM135.927 13.4531H139.921C142.765 13.4531 143.821 14.3959 143.821 16.9282C143.821 19.3645 142.665 20.4033 139.952 20.4033H135.925V13.4531H135.927Z" fill="white"/>
<path d="M123.597 14.4331C120.097 14.4331 117.816 16.1324 117.172 19.2175C117.15 19.3214 117.214 19.4233 117.315 19.4488L119.898 20.0877C119.948 20.0995 120 20.0917 120.045 20.0642C120.089 20.0368 120.12 19.9937 120.132 19.9427C120.59 18.0199 121.661 17.1242 123.502 17.1242C125.64 17.1242 126.553 18.0964 126.553 20.3759V21.3931H122.023C118.577 21.3931 116.601 23.0944 116.601 26.0579C116.601 28.8608 118.291 30.4033 121.362 30.4033C123.945 30.4033 125.867 29.0587 126.679 26.6989V29.8878C126.679 29.9956 126.766 30.0838 126.872 30.0838H129.486C129.592 30.0838 129.679 29.9956 129.679 29.8878V20.3425C129.679 16.4225 127.632 14.4331 123.597 14.4331ZM126.553 23.7V24.3331C126.553 26.3931 124.846 27.7769 122.307 27.7769C120.072 27.7769 119.604 26.6675 119.604 25.7385C119.604 24.0528 121.143 23.7 122.435 23.7H126.553Z" fill="white"/>
<path d="M154.55 14.4331C151.05 14.4331 148.768 16.1324 148.125 19.2175C148.103 19.3214 148.167 19.4233 148.268 19.4488L150.851 20.0877C150.901 20.0995 150.953 20.0917 150.998 20.0642C151.042 20.0368 151.073 19.9937 151.085 19.9427C151.543 18.0199 152.614 17.1242 154.455 17.1242C156.593 17.1242 157.506 18.0964 157.506 20.3759V21.3931H152.974C149.528 21.3931 147.552 23.0944 147.552 26.0579C147.552 28.8608 149.242 30.4033 152.313 30.4033C154.896 30.4033 156.818 29.0587 157.63 26.6989V29.8878C157.63 29.9956 157.717 30.0838 157.823 30.0838H160.437C160.543 30.0838 160.63 29.9956 160.63 29.8878V20.3425C160.63 16.4225 158.585 14.4331 154.55 14.4331ZM157.504 23.7V24.3331C157.504 26.3931 155.797 27.7769 153.258 27.7769C151.023 27.7769 150.555 26.6675 150.555 25.7385C150.555 24.0528 152.094 23.7 153.386 23.7H157.504Z" fill="white"/>
<path d="M59.0161 10.5386H56.1197C56.0134 10.5386 55.9263 10.6268 55.9263 10.7346V18.8059H46.2357V10.7346C46.2357 10.6268 46.1487 10.5386 46.0424 10.5386H43.146C43.0396 10.5386 42.9526 10.6268 42.9526 10.7346V29.8878C42.9526 29.9956 43.0396 30.0838 43.146 30.0838H46.0424C46.1487 30.0838 46.2357 29.9956 46.2357 29.8878V29.8839C46.2357 29.8839 46.2357 29.8839 46.2357 29.8819C46.2357 29.8819 46.2357 29.8819 46.2357 29.88V21.8459H55.9263V29.8859C55.9263 29.9937 56.0134 30.0819 56.1197 30.0819H59.0161C59.1224 30.0819 59.2094 29.9937 59.2094 29.8859V10.7346C59.2094 10.6268 59.1224 10.5386 59.0161 10.5386Z" fill="white"/>
<path d="M27.7721 18.132C28.617 17.9399 29.4793 18.0908 30.1967 18.5592C30.3088 18.6318 30.4151 18.7121 30.5157 18.7964C30.5524 18.8278 30.6046 18.7827 30.5776 18.7396L25.7864 10.9701C25.7612 10.9309 25.6994 10.9544 25.709 10.9995C25.7438 11.1739 25.7612 11.3542 25.7612 11.5385V19.0669C25.7612 19.21 25.9352 19.2786 26.0281 19.1708C26.4805 18.6514 27.0857 18.2868 27.7721 18.132Z" fill="#D2506A"/>
<path d="M5.61272 18.3183C6.12316 18.085 6.68967 17.9949 7.24652 18.0576C8.09145 18.1517 8.83778 18.5594 9.36562 19.1924C9.44876 19.2924 9.60924 19.2356 9.60924 19.1042V11.6033C9.60924 10.0745 10.8003 8.78478 12.3084 8.7593C13.4124 8.74166 14.3734 9.3865 14.8258 10.3273C14.8567 10.392 14.9515 10.3704 14.9515 10.2979V8.89258C14.9515 7.37749 16.1212 6.09564 17.6139 6.05056C19.1665 6.00352 20.4426 7.26969 20.4426 8.83378V10.2528C20.4426 10.3234 20.5354 10.3469 20.5663 10.2842C21.0226 9.37278 21.9585 8.7593 23.0161 8.7593C23.6406 8.7593 24.2148 8.97098 24.6769 9.3277C24.7137 9.3571 24.762 9.31006 24.7369 9.27086L22.1499 5.07643C21.7322 4.13367 20.7984 3.4751 19.7117 3.4751C19.093 3.4751 18.5226 3.68875 18.0702 4.04743C18.0083 4.09643 17.9155 4.07879 17.8749 4.01019L16.6549 2.03057H16.653C16.1812 1.27401 15.3478 0.768326 14.3985 0.766366C12.9252 0.762446 11.7206 2.04625 11.7206 3.53782V4.99999C11.7206 5.11563 11.5717 5.15875 11.5118 5.06075L11.3126 4.73735H11.3107C10.837 3.97687 10.0017 3.47118 9.05047 3.47118C7.57521 3.47118 6.38031 4.68247 6.38031 6.17796V14.3336C6.38031 14.361 6.34551 14.3708 6.33198 14.3473L6.30491 14.3022C5.3981 12.8302 3.49361 12.3108 2.01836 13.1909C1.24883 13.6554 0.746123 14.3904 0.556641 15.2019L3.65796 20.2352C3.71403 20.3273 3.84938 20.3097 3.88611 20.2077C4.17614 19.3728 4.78518 18.6946 5.61272 18.3183Z" fill="#D2506A"/>
<path d="M34.8006 25.8735C34.7233 25.5677 34.6015 25.2737 34.4391 25.0013L31.7032 20.5638C31.678 20.5246 31.62 20.5246 31.5968 20.5638L25.7557 30.0366C24.0059 32.8766 20.9878 34.572 17.6834 34.572C15.0713 34.572 12.6389 33.5117 10.8679 31.6634C10.8079 31.6007 10.7112 31.6791 10.7557 31.7516L12.9773 35.3541C14.7928 38.298 18.0469 40.0268 21.4943 39.8405C24.5976 39.672 27.4089 37.9276 29.0543 35.258L34.7871 25.9578C34.8045 25.9362 34.8084 25.9029 34.8006 25.8735Z" fill="#D2506A"/>
<path d="M176.421 14.8719C176.384 14.817 176.324 14.7837 176.261 14.7837H173.331C173.264 14.8327 173.215 14.868 173.148 14.917L171.351 20.2815C171.011 21.336 170.582 22.612 170.127 23.9624C169.762 25.0502 169.383 26.1733 169.035 27.2337H168.842C168.246 25.4089 167.481 23.2745 166.862 21.5497C166.696 21.0851 166.537 20.6461 166.396 20.2443L164.507 14.9131C164.441 14.866 164.391 14.8307 164.325 14.7837H161.301C161.235 14.7837 161.175 14.817 161.141 14.8719C161.106 14.9268 161.098 14.9954 161.125 15.0561L167.328 29.7582C166.216 32.2552 165.33 32.661 163.666 32.661C163.242 32.661 162.829 32.6159 162.378 32.5414C162.378 32.5414 162.297 32.5257 162.247 32.6022C162.196 32.6786 162.243 32.7472 162.243 32.7472L163.925 35.4755C163.956 35.5265 164.018 35.5579 164.078 35.5539C166.891 35.3873 168.693 33.7899 170.207 30.1541L176.442 15.0542C176.464 14.9954 176.458 14.9268 176.421 14.8719Z" fill="white"/>
</svg>
