<?xml version="1.0" encoding="utf-8"?>
<!-- Generator: Adobe Illustrator 25.2.1, SVG Export Plug-In . SVG Version: 6.00 Build 0)  -->
<svg version="1.1" id="Layer_1" xmlns="http://www.w3.org/2000/svg" xmlns:xlink="http://www.w3.org/1999/xlink" x="0px" y="0px"
	 viewBox="0 0 324.1 108.97" style="enable-background:new 0 0 324.1 108.97;" xml:space="preserve">
<style type="text/css">
	.st0{fill:#3D3C61;}
</style>
<path class="st0" d="M124.14,41.4c-5.2,0-8.59,2.49-9.55,7.01c-0.03,0.15,0.06,0.3,0.21,0.34l3.84,0.94
	c0.07,0.02,0.15,0.01,0.22-0.03c0.07-0.04,0.11-0.1,0.13-0.18c0.68-2.82,2.27-4.13,5.01-4.13c3.18,0,4.53,1.43,4.53,4.77v1.49h-6.73
	c-5.12,0-8.05,2.49-8.05,6.84c0,4.11,2.51,6.37,7.07,6.37c3.84,0,6.69-1.97,7.9-5.43v4.67c0,0.16,0.13,0.29,0.29,0.29h3.88
	c0.16,0,0.29-0.13,0.29-0.29V50.06C133.17,44.32,130.13,41.4,124.14,41.4z M128.53,54.98v0.93c0,3.02-2.54,5.05-6.31,5.05
	c-3.32,0-4.02-1.63-4.02-2.99c0-2.47,2.29-2.99,4.2-2.99H128.53z"/>
<path class="st0" d="M164.94,41.35c-4.14,0-6.95,2.22-8.14,6.41c-0.57-4.2-3.01-6.41-7.07-6.41c-3.8,0-6.71,2.18-8.04,6V42.2
	c0-0.16-0.13-0.29-0.29-0.29h-3.98c-0.16,0-0.29,0.13-0.29,0.29v21.85c0,0.16,0.13,0.29,0.29,0.29h4.07c0.16,0,0.29-0.13,0.29-0.29
	V51.56c0-3.55,2.5-5.94,6.22-5.94c3.67,0,4.44,2.69,4.44,4.95v13.48c0,0.16,0.13,0.29,0.29,0.29h4.07c0.16,0,0.29-0.13,0.29-0.29
	V51.56c0-3.61,2.44-5.94,6.22-5.94c3.67,0,4.44,2.69,4.44,4.95v13.48c0,0.16,0.13,0.29,0.29,0.29h4.07c0.16,0,0.29-0.13,0.29-0.29
	V49.6C172.38,44.36,169.67,41.35,164.94,41.35z"/>
<path class="st0" d="M185.49,51.14c-4.56-0.74-5.19-2.06-5.19-3.37c0-1.28,0.71-2.8,4.06-2.8c2.81,0,4.17,1.11,4.82,3.94
	c0.04,0.15,0.19,0.25,0.34,0.22l3.74-0.8c0.08-0.02,0.14-0.06,0.18-0.13c0.04-0.07,0.05-0.15,0.04-0.22
	c-1.18-4.71-3.79-6.63-9.03-6.63c-5.51,0-8.66,2.42-8.66,6.65c0,3.74,2.39,5.77,8.01,6.79c4.93,0.86,5.8,1.8,5.8,3.45
	c-0.04,1.99-1.52,2.99-4.39,2.99c-3.48,0-5.32-1.39-6.18-4.65c-0.04-0.15-0.19-0.24-0.33-0.21l-3.7,0.75
	c-0.07,0.02-0.14,0.06-0.18,0.12c-0.04,0.06-0.06,0.14-0.04,0.22c1.06,5.21,4.17,7.44,10.39,7.44c5.77,0,8.94-2.41,8.94-6.79
	C194.11,54.25,191.61,52.23,185.49,51.14z"/>
<path class="st0" d="M230.8,35.69h-10.95c-0.16,0-0.29,0.13-0.29,0.29v28.08c0,0.16,0.13,0.29,0.29,0.29h4.3
	c0.16,0,0.29-0.13,0.29-0.29v-9.73h6.45c6.24,0,10.11-3.57,10.11-9.32C241,38.83,237.57,35.69,230.8,35.69z M224.44,39.96h5.94
	c4.22,0,5.8,1.38,5.8,5.09c0,3.57-1.72,5.09-5.75,5.09h-5.98V39.96z"/>
<path class="st0" d="M206.12,41.4c-5.2,0-8.59,2.49-9.55,7.01c-0.03,0.15,0.06,0.3,0.21,0.34l3.84,0.94
	c0.07,0.02,0.15,0.01,0.22-0.03c0.07-0.04,0.11-0.1,0.13-0.18c0.68-2.82,2.27-4.13,5.01-4.13c3.18,0,4.53,1.43,4.53,4.77v1.49h-6.73
	c-5.12,0-8.05,2.49-8.05,6.84c0,4.11,2.51,6.37,7.07,6.37c3.84,0,6.69-1.97,7.9-5.43v4.67c0,0.16,0.13,0.29,0.29,0.29h3.88
	c0.16,0,0.29-0.13,0.29-0.29V50.06C215.16,44.32,212.12,41.4,206.12,41.4z M210.51,54.98v0.93c0,3.02-2.54,5.05-6.31,5.05
	c-3.32,0-4.02-1.63-4.02-2.99c0-2.47,2.29-2.99,4.2-2.99H210.51z"/>
<path class="st0" d="M252.11,41.4c-5.2,0-8.59,2.49-9.55,7.01c-0.03,0.15,0.06,0.3,0.21,0.34l3.84,0.94
	c0.07,0.02,0.15,0.01,0.22-0.03c0.07-0.04,0.11-0.1,0.13-0.18c0.68-2.82,2.27-4.13,5.01-4.13c3.18,0,4.53,1.43,4.53,4.77v1.49h-6.73
	c-5.12,0-8.05,2.49-8.05,6.84c0,4.11,2.51,6.37,7.07,6.37c3.84,0,6.69-1.97,7.9-5.43v4.67c0,0.16,0.13,0.29,0.29,0.29h3.88
	c0.16,0,0.29-0.13,0.29-0.29V50.06C261.15,44.32,258.11,41.4,252.11,41.4z M256.5,54.98v0.93c0,3.02-2.54,5.05-6.31,5.05
	c-3.32,0-4.02-1.63-4.02-2.99c0-2.47,2.29-2.99,4.2-2.99H256.5z"/>
<path class="st0" d="M110.16,35.69h-4.3c-0.16,0-0.29,0.13-0.29,0.29v11.83h-14.4V35.98c0-0.16-0.13-0.29-0.29-0.29h-4.3
	c-0.16,0-0.29,0.13-0.29,0.29v28.08c0,0.16,0.13,0.29,0.29,0.29h4.3c0.16,0,0.29-0.13,0.29-0.29v-0.01c0,0,0,0,0,0c0,0,0,0,0,0
	l0-11.78h14.4v11.79c0,0.16,0.13,0.29,0.29,0.29h4.3c0.16,0,0.29-0.13,0.29-0.29V35.98C110.45,35.82,110.32,35.69,110.16,35.69z"/>
<g>
	<path class="st0" d="M63.73,46.82c1.26-0.28,2.54-0.06,3.6,0.63c0.17,0.11,0.32,0.22,0.47,0.35c0.06,0.05,0.13-0.02,0.09-0.08
		l-7.12-11.39c-0.04-0.06-0.13-0.02-0.11,0.04c0.05,0.26,0.08,0.52,0.08,0.79V48.2c0,0.21,0.26,0.31,0.4,0.15
		C61.82,47.58,62.71,47.05,63.73,46.82z"/>
	<path class="st0" d="M30.81,47.09c0.76-0.34,1.6-0.47,2.43-0.38c1.26,0.14,2.36,0.73,3.15,1.66c0.12,0.15,0.36,0.06,0.36-0.13v-11
		c0-2.24,1.77-4.13,4.01-4.17c1.64-0.03,3.07,0.92,3.74,2.3c0.05,0.09,0.19,0.06,0.19-0.04v-2.06c0-2.22,1.74-4.1,3.96-4.17
		c2.31-0.07,4.2,1.79,4.2,4.08v2.08c0,0.1,0.14,0.14,0.18,0.05c0.68-1.34,2.07-2.24,3.64-2.24c0.93,0,1.78,0.31,2.47,0.83
		c0.05,0.04,0.13-0.02,0.09-0.08l-3.84-6.15c-0.62-1.38-2.01-2.35-3.62-2.35c-0.92,0-1.77,0.31-2.44,0.84
		c-0.09,0.07-0.23,0.05-0.29-0.05l-1.81-2.9l0,0c-0.7-1.11-1.94-1.85-3.35-1.85c-2.19,0-3.98,1.88-3.98,4.06v2.14
		c0,0.17-0.22,0.23-0.31,0.09l-0.3-0.47l0,0c-0.7-1.11-1.94-1.86-3.36-1.86h0c-2.19,0-3.97,1.78-3.97,3.97v11.95
		c0,0.04-0.05,0.05-0.07,0.02l-0.04-0.07c-1.35-2.16-4.18-2.92-6.37-1.63c-1.14,0.67-1.89,1.75-2.17,2.94l4.61,7.38
		c0.08,0.13,0.28,0.11,0.34-0.04C28.67,48.64,29.58,47.65,30.81,47.09z"/>
	<path class="st0" d="M74.18,58.17c-0.11-0.45-0.29-0.88-0.54-1.28l-4.07-6.5c-0.04-0.06-0.12-0.06-0.16,0l-8.68,13.88
		c-2.6,4.16-7.08,6.65-11.99,6.65c-3.88,0-7.5-1.55-10.13-4.26c-0.09-0.09-0.23,0.02-0.17,0.13l3.3,5.28
		c2.7,4.32,7.53,6.85,12.65,6.58c4.61-0.25,8.79-2.8,11.23-6.72l8.52-13.63C74.18,58.26,74.19,58.21,74.18,58.17z"/>
</g>
<path class="st0" d="M284.61,42.04c-0.05-0.08-0.14-0.13-0.24-0.13h-4.35c-0.1,0.07-0.17,0.12-0.27,0.19l-2.67,7.86
	c-0.51,1.54-1.14,3.42-1.82,5.4c-0.54,1.6-1.11,3.24-1.62,4.79h-0.29c-0.88-2.67-2.02-5.8-2.94-8.33c-0.25-0.68-0.48-1.32-0.69-1.91
	l-2.81-7.81c-0.1-0.07-0.17-0.12-0.27-0.19h-4.49c-0.1,0-0.19,0.05-0.24,0.13c-0.05,0.08-0.06,0.18-0.02,0.27l9.22,21.55
	c-1.65,3.66-2.97,4.25-5.44,4.25c-0.63,0-1.24-0.07-1.91-0.17c0,0-0.12-0.02-0.2,0.09c-0.08,0.11-0.01,0.21-0.01,0.21l2.5,4
	c0.05,0.08,0.14,0.12,0.23,0.12c4.18-0.24,6.86-2.59,9.11-7.92l9.26-22.13C284.67,42.23,284.66,42.12,284.61,42.04z"/>
</svg>
